HIERARCHY
ROOT Hips
{
 OFFSET 0.000000 0.000000 0.000000
 CHANNELS 6 Xposition Yposition Zposition Yrotation Xrotation Zrotation
 JOINT Chest
 {
  OFFSET 0.000000 9.585900 0.002600
  CHANNELS 3 Yrotation Xrotation Zrotation
  JOINT Chest2
  {
   OFFSET 0.000000 9.601200 -0.005300
   CHANNELS 3 Yrotation Xrotation Zrotation
   JOINT Chest3
   {
    OFFSET 0.000000 9.561800 0.000000
    CHANNELS 3 Yrotation Xrotation Zrotation
    JOINT Chest4
    {
     OFFSET 0.000000 9.552100 0.000000
     CHANNELS 3 Yrotation Xrotation Zrotation
     JOINT Neck
     {
      OFFSET 0.000000 14.453000 0.000000
      CHANNELS 3 Yrotation Xrotation Zrotation
      JOINT Head
      {
       OFFSET 0.000000 8.936500 -0.011300
       CHANNELS 3 Yrotation Xrotation Zrotation
       End Site
       {
        OFFSET 0.000000 17.073600 -0.006000
       }
      }
     }
     JOINT RightCollar
     {
      OFFSET -2.921100 9.558500 0.000000
      CHANNELS 3 Yrotation Xrotation Zrotation
      JOINT RightShoulder
      {
       OFFSET -13.519700 0.000000 0.000000
       CHANNELS 3 Yrotation Xrotation Zrotation
       JOINT RightElbow
       {
        OFFSET 0.000000 -29.696600 0.000000
        CHANNELS 3 Yrotation Xrotation Zrotation
        JOINT RightWrist
        {
         OFFSET 0.000000 -24.004700 0.000000
         CHANNELS 3 Yrotation Xrotation Zrotation
         End Site
         {
          OFFSET 0.000000 -17.728500 0.000000
         }
        }
       }
      }
     }
     JOINT LeftCollar
     {
      OFFSET 2.921100 9.558500 0.000000
      CHANNELS 3 Yrotation Xrotation Zrotation
      JOINT LeftShoulder
      {
       OFFSET 13.519700 0.000000 0.000000
       CHANNELS 3 Yrotation Xrotation Zrotation
       JOINT LeftElbow
       {
        OFFSET 0.000000 -29.696600 0.000000
        CHANNELS 3 Yrotation Xrotation Zrotation
        JOINT LeftWrist
        {
         OFFSET 0.000000 -24.004700 0.000000
         CHANNELS 3 Yrotation Xrotation Zrotation
         End Site
         {
          OFFSET 0.000000 -17.728500 0.000000
         }
        }
       }
      }
     }
    }
   }
  }
 }
 JOINT RightHip
 {
  OFFSET -7.771700 -0.012900 -0.001300
  CHANNELS 3 Yrotation Xrotation Zrotation
  JOINT RightKnee
  {
   OFFSET 0.000000 -40.869800 0.001200
   CHANNELS 3 Yrotation Xrotation Zrotation
   JOINT RightAnkle
   {
    OFFSET 0.000000 -39.717900 0.002100
    CHANNELS 3 Yrotation Xrotation Zrotation
    JOINT RightToe
    {
     OFFSET 0.000000 -4.965400 11.033500
     CHANNELS 3 Yrotation Xrotation Zrotation
     End Site
     {
      OFFSET 0.000000 -1.423100 5.872300
     }
    }
   }
  }
 }
 JOINT LeftHip
 {
  OFFSET 7.771700 -0.012900 -0.001300
  CHANNELS 3 Yrotation Xrotation Zrotation
  JOINT LeftKnee
  {
   OFFSET 0.000000 -40.869800 0.001200
   CHANNELS 3 Yrotation Xrotation Zrotation
   JOINT LeftAnkle
   {
    OFFSET 0.000000 -39.717900 0.002100
    CHANNELS 3 Yrotation Xrotation Zrotation
    JOINT LeftToe
    {
     OFFSET 0.000000 -4.965400 11.033500
     CHANNELS 3 Yrotation Xrotation Zrotation
     End Site
     {
      OFFSET 0.000000 -1.423100 5.872300
     }
    }
   }
  }
 }
}
MOTION
Frames: 16
Frame Time: 0.008333
-28.882268 50.572891 6.881293 163.009129 -11.200240 -1.292212 3.829903 9.143537 0.219239 0.207925 0.542031 -0.045449 0.359491 0.938000 -0.077475 3.235900 8.541563 -0.499346 3.137684 17.416474 1.060414 5.428560 -3.433289 0.894835 2.952057 3.449916 -1.448693 -7.401590 -22.462641 -13.010010 -134.895874 -67.633896 160.160762 0.608903 3.295332 -19.460217 -4.422197 1.135602 1.973275 20.997578 -13.079200 4.300257 128.720258 -65.413733 -158.737011 3.919366 0.400273 10.996158 -5.265046 -69.491052 2.561950 -115.377699 83.936112 -113.982602 -3.386070 -13.257293 -0.196812 -0.141338 0.688014 -0.062799 -14.705279 -72.454215 30.514875 106.576215 78.167635 103.174872 -15.731755 -20.609118 -0.728290 -0.468629 -0.992630 -0.187901
-28.879639 50.574123 6.875069 162.982433 -11.234378 -1.297014 3.854636 9.180512 0.222374 0.207862 0.539592 -0.042255 0.359194 0.938062 -0.077876 3.238609 8.543622 -0.501199 3.140976 17.420626 1.064115 5.434307 -3.420077 0.896063 2.946328 3.439914 -1.471592 -7.377602 -22.456007 -13.013787 -134.873943 -67.639988 160.131486 0.609215 3.294874 -19.467591 -4.421305 1.130906 1.985032 20.995537 -13.078636 4.304295 128.761023 -65.424951 -158.801402 3.896201 0.429893 10.815027 -5.229802 -69.456639 2.562275 -115.371382 83.931353 -113.968378 -3.384517 -13.250784 -0.194903 -0.143956 0.682078 -0.063778 -14.670846 -72.420271 30.505933 106.725378 78.185466 103.326428 -15.664002 -20.656273 -0.725898 -0.515558 -0.972088 -0.204882
-28.877736 50.574441 6.873473 162.976020 -11.239965 -1.311101 3.863813 9.185923 0.236897 0.208130 0.542649 -0.046414 0.358390 0.937579 -0.077041 3.237639 8.543175 -0.503420 3.146514 17.435840 1.064837 5.441477 -3.396148 0.897828 2.947619 3.434609 -1.473042 -7.363286 -22.454543 -13.025267 -134.857850 -67.649037 160.120341 0.612274 3.299543 -19.481034 -4.418592 1.124638 1.997764 20.987069 -13.076731 4.315689 128.810902 -65.434091 -158.871810 3.879509 0.455978 10.642005 -5.233506 -69.450316 2.585975 -115.351427 83.929254 -113.943411 -3.383329 -13.240633 -0.190907 -0.149305 0.675756 -0.064601 -14.702656 -72.412588 30.549244 106.798861 78.196237 103.402544 -15.639302 -20.693651 -0.725506 -0.427052 -0.968688 -0.196178
-28.878070 50.574529 6.872144 162.973490 -11.240489 -1.314943 3.867743 9.186641 0.240740 0.207746 0.542402 -0.046103 0.358283 0.941369 -0.083037 3.237597 8.542376 -0.504222 3.150322 17.465386 1.058352 5.456248 -3.346885 0.894855 2.947981 3.428757 -1.474096 -7.348453 -22.452161 -13.036238 -134.838672 -67.657712 160.103929 0.611810 3.299048 -19.481013 -4.422889 1.113587 2.014927 20.975106 -13.065068 4.325747 128.890053 -65.446817 -158.960326 3.866943 0.474619 10.473245 -5.230237 -69.449354 2.591866 -115.341762 83.931679 -113.935286 -3.376685 -13.236724 -0.188819 -0.161953 0.675501 -0.065036 -14.728036 -72.409000 30.579183 106.861057 78.205984 103.462382 -15.638946 -20.723306 -0.722821 -0.421585 -0.966226 -0.195326
-28.880043 50.574491 6.870629 162.983457 -11.240026 -1.312785 3.856519 9.190572 0.231138 0.207658 0.542368 -0.046343 0.359038 0.938367 -0.078987 3.239909 8.546757 -0.508630 3.152245 17.477162 1.056943 5.460108 -3.324808 0.892076 2.938386 3.416865 -1.491606 -7.330077 -22.441279 -13.031785 -134.824562 -67.669441 160.090233 0.610395 3.301594 -19.486336 -4.426802 1.104361 2.025322 20.956727 -13.059927 4.338432 128.971055 -65.457839 -159.047143 3.850908 0.492385 10.311238 -5.218659 -69.450277 2.576168 -115.404614 83.940492 -114.004861 -3.375962 -13.240199 -0.177455 -0.170711 0.678253 -0.071325 -14.746165 -72.406868 30.588549 106.899163 78.215775 103.493349 -15.650614 -20.741334 -0.717095 -0.421983 -0.971640 -0.194224
-28.881814 50.574266 6.870094 162.994152 -11.235873 -1.314881 3.848644 9.188591 0.231481 0.207892 0.542680 -0.046597 0.359293 0.939239 -0.079408 3.238920 8.549618 -0.512990 3.152810 17.484300 1.056495 5.461546 -3.308729 0.889559 2.932630 3.404563 -1.496762 -7.319602 -22.432407 -13.032135 -134.811439 -67.684304 160.083949 0.600237 3.304577 -19.481417 -4.433255 1.093845 2.034533 20.916868 -13.060666 4.373046 129.093033 -65.469455 -159.176888 3.860754 0.510088 10.190743 -5.207599 -69.451949 2.565045 -115.371860 83.936074 -113.968991 -3.382871 -13.247588 -0.175342 -0.166414 0.685813 -0.067989 -14.784254 -72.405375 30.617210 106.913702 78.221327 103.498067 -15.668558 -20.752427 -0.709850 -0.429045 -0.979257 -0.195132
-28.883729 50.573985 6.869519 163.005039 -11.233625 -1.317330 3.839735 9.191152 0.229024 0.207910 0.542877 -0.046851 0.359421 0.939429 -0.079663 3.238530 8.549442 -0.515317 3.153671 17.483455 1.060235 5.461939 -3.303321 0.888690 2.931649 3.394567 -1.497746 -7.312188 -22.425109 -13.035664 -134.799474 -67.691220 160.071803 0.594675 3.315850 -19.463809 -4.439393 1.084225 2.044581 20.899107 -13.057533 4.388036 129.158134 -65.485556 -159.261700 3.847328 0.527616 10.059224 -5.206760 -69.453126 2.559760 -115.366219 83.934662 -113.962389 -3.384761 -13.252690 -0.172396 -0.163763 0.690426 -0.068388 -14.825123 -72.401201 30.646704 106.917818 78.225147 103.488739 -15.673159 -20.753738 -0.705275 -0.438387 -0.984493 -0.195848
-28.885629 50.573377 6.870372 163.017852 -11.224927 -1.323780 3.831481 9.185970 0.229963 0.210312 0.545954 -0.050728 0.359037 0.939413 -0.080189 3.234027 8.544543 -0.511187 3.153091 17.499003 1.055978 5.460071 -3.281047 0.882871 2.932063 3.390730 -1.496601 -7.296433 -22.419995 -13.051408 -134.792462 -67.686398 160.049769 0.598399 3.340557 -19.437687 -4.442221 1.080008 2.050050 20.877532 -13.055391 4.403719 129.201754 -65.497527 -159.316522 3.826548 0.547524 9.924396 -5.217373 -69.460998 2.563864 -115.323778 83.928179 -113.917115 -3.380240 -13.253189 -0.171595 -0.163724 0.692129 -0.068255 -14.886497 -72.403329 30.691497 106.903513 78.223422 103.459460 -15.661399 -20.743949 -0.704747 -0.467822 -0.995948 -0.198763
-28.889573 50.572266 6.872895 163.035924 -11.204185 -1.323191 3.818834 9.170742 0.219280 0.205884 0.542372 -0.046398 0.358844 0.939275 -0.080369 3.232460 8.544721 -0.513584 3.150530 17.521336 1.038266 5.462862 -3.271334 0.887113 2.934770 3.385187 -1.507508 -7.293545 -22.407588 -13.047364 -134.788650 -67.689323 160.049229 0.602568 3.350060 -19.417202 -4.444093 1.077123 2.056046 20.860100 -13.052585 4.415250 129.231914 -65.506330 -159.354086 3.799880 0.570095 9.790895 -5.225020 -69.482453 2.555971 -115.290007 83.927327 -113.887115 -3.374055 -13.251803 -0.166971 -0.169383 0.694287 -0.070388 -14.936194 -72.420901 30.715328 106.856707 78.215638 103.403372 -15.668336 -20.718967 -0.706855 -0.380182 -1.019556 -0.185063
-28.894912 50.570783 6.876681 163.075823 -11.173908 -1.321221 3.778759 9.142531 0.206972 0.207261 0.542707 -0.047268 0.358450 0.939088 -0.080507 3.228914 8.544880 -0.518032 3.152755 17.527219 1.035479 5.472505 -3.226368 0.861600 2.939325 3.377423 -1.515035 -7.302215 -22.394881 -13.044758 -134.776238 -67.691872 160.039992 0.622848 3.383778 -19.372720 -4.444901 1.069641 2.071551 20.856226 -13.042229 4.412840 129.242028 -65.509322 -159.365925 3.761999 0.599299 9.652953 -5.235490 -69.515529 2.529551 -115.302698 83.922574 -113.903706 -3.366953 -13.251994 -0.160252 -0.175769 0.694455 -0.072110 -14.987681 -72.451521 30.721114 106.755787 78.198166 103.291463 -15.689002 -20.678192 -0.705475 -0.401292 -1.035356 -0.182889
-28.897690 50.570121 6.877170 163.085137 -11.168175 -1.321792 3.770932 9.137800 0.202918 0.207871 0.544061 -0.048130 0.357294 0.936992 -0.080020 3.224980 8.540490 -0.520781 3.157671 17.536254 1.033980 5.478917 -3.211979 0.850074 2.947747 3.377913 -1.522466 -7.315961 -22.390870 -13.055716 -134.738586 -67.681911 160.010133 0.633939 3.395242 -19.370315 -4.442101 1.073815 2.077512 20.829156 -13.039261 4.426444 129.275755 -65.524579 -159.409095 3.733152 0.613733 9.560912 -5.234912 -69.523673 2.523407 -115.312278 83.922247 -113.915236 -3.365297 -13.246841 -0.158615 -0.181336 0.690651 -0.071623 -14.998284 -72.459552 30.720981 106.730846 78.190405 103.265204 -15.702697 -20.648520 -0.707697 -0.387946 -1.048665 -0.175104
-28.900171 50.569483 6.877984 163.098494 -11.160286 -1.324437 3.758815 9.132721 0.201584 0.209075 0.545013 -0.047927 0.355618 0.935215 -0.080420 3.222961 8.536999 -0.519197 3.160974 17.544030 1.027306 5.481345 -3.205116 0.841039 2.939744 3.377228 -1.550386 -7.319049 -22.385853 -13.033360 -134.784829 -67.702088 160.054872 0.624125 3.393641 -19.367887 -4.451198 1.075050 2.084945 20.816708 -13.034886 4.433093 129.277404 -65.531756 -159.429498 3.689432 0.635135 9.492874 -5.234185 -69.530076 2.515640 -115.283545 83.920481 -113.884329 -3.368426 -13.250578 -0.160343 -0.180074 0.695428 -0.068192 -15.001911 -72.471221 30.711753 106.694447 78.182332 103.234399 -15.731954 -20.626357 -0.707848 -0.388598 -1.050649 -0.170475
-28.902580 50.568822 6.879484 163.114328 -11.147201 -1.327865 3.744391 9.123299 0.200172 0.210613 0.544689 -0.046735 0.353341 0.933576 -0.080750 3.224807 8.538790 -0.517757 3.161675 17.548209 1.020096 5.479198 -3.208714 0.842248 2.927203 3.370831 -1.569481 -7.320837 -22.382758 -13.025944 -134.792236 -67.706776 160.061853 0.625508 3.396006 -19.363012 -4.469002 1.069028 2.090405 20.784084 -13.030836 4.449697 129.297406 -65.537801 -159.465770 3.639730 0.660875 9.468018 -5.249301 -69.542473 2.517733 -115.262644 83.919492 -113.864770 -3.363695 -13.251391 -0.159806 -0.184787 0.698402 -0.072789 -15.002511 -72.487989 30.695379 106.643166 78.173601 103.193125 -15.757341 -20.616678 -0.709340 -0.390929 -1.039041 -0.168547
-28.903137 50.568646 6.879837 163.106703 -11.143115 -1.334094 3.758440 9.122986 0.209020 0.204964 0.545757 -0.048855 0.358767 0.932299 -0.078395 3.217557 8.540005 -0.520054 3.163744 17.550404 1.012970 5.485207 -3.200555 0.830987 2.924687 3.363573 -1.574295 -7.321980 -22.379213 -13.029265 -134.808502 -67.709355 160.079104 0.618019 3.393852 -19.362310 -4.469593 1.063082 2.092577 20.770597 -13.030158 4.456146 129.308449 -65.540264 -159.479862 3.580992 0.699166 9.417066 -5.257172 -69.546280 2.538627 -115.214492 83.921635 -113.820174 -3.356788 -13.243558 -0.153037 -0.193766 0.696755 -0.079800 -14.994234 -72.496045 30.692937 106.632750 78.167438 103.207108 -15.786398 -20.615381 -0.730691 -0.384020 -1.031887 -0.154974
-28.902686 50.568883 6.879019 163.099179 -11.146148 -1.343242 3.761213 9.137564 0.213949 0.206150 0.541024 -0.047155 0.365285 0.929669 -0.077098 3.206677 8.540558 -0.522210 3.169750 17.550648 1.007899 5.499912 -3.193548 0.814534 2.931434 3.354433 -1.577075 -7.325279 -22.374911 -13.031173 -134.819767 -67.713193 160.094576 0.610396 3.391446 -19.363964 -4.467661 1.058537 2.096830 20.761953 -13.030249 4.461744 129.331742 -65.546649 -159.524816 3.524344 0.733881 9.400009 -5.251769 -69.540819 2.559685 -115.126208 83.912371 -113.733297 -3.364540 -13.241594 -0.148670 -0.190222 0.699152 -0.075399 -14.988027 -72.497215 30.695072 106.648800 78.161266 103.242339 -15.807593 -20.623450 -0.737365 -0.382272 -1.026207 -0.151348
-28.904408 50.569177 6.877506 163.091743 -11.148111 -1.338663 3.762466 9.146161 0.207474 0.206040 0.540972 -0.047104 0.360976 0.929794 -0.078441 3.209488 8.540408 -0.520613 3.174324 17.551996 1.000371 5.508625 -3.188742 0.800592 2.920559 3.342431 -1.601953 -7.324087 -22.364532 -13.011228 -134.821298 -67.717183 160.103036 0.620736 3.386762 -19.360841 -4.472004 1.051175 2.101235 20.738531 -13.027120 4.471416 129.377538 -65.544895 -159.609504 3.469795 0.770966 9.426186 -5.220150 -69.539645 2.546357 -115.081006 83.908289 -113.692529 -3.371849 -13.240323 -0.141636 -0.189467 0.701549 -0.072999 -14.939350 -72.501615 30.653533 106.673763 78.163639 103.287057 -15.844991 -20.637304 -0.730803 -0.367875 -1.017766 -0.154456
